{"title":"[PC]Rege - 2014 - Marathi 720p DVDRip.mp4","uid":11042276,"size":523576931,"categoryP":"video","categoryS":"hd___movies","magnet":"?xt=urn:btih:1e4e415655476d312d09c4c29d485377ad586c36&amp;dn=%5BPC%5DRege+-+2014+-+Marathi+720p+DVDRip.mp4&amp;tr=udp%3A%2F%2Ftracker.openbittorrent.com%3A80&amp;tr=udp%3A%2F%2Fopen.demonii.com%3A1337&amp;tr=udp%3A%2F%2Ftracker.coppersurfer.tk%3A6969&amp;tr=udp%3A%2F%2Fexodus.desync.com%3A6969","seeders":2,"leechers":0,"uploader":"pavan777","files":1,"time":1410882646,"description":"\n\nFormat : Matroska\nFormat version : Version 4 / Version 2\nFile size : 499 MiB\nOverall bit rate : 577 Kbps\nWriting application : Lavf55.19.104\nWriting library : Lavf55.19.104\n\n\n\nVideo\n\nID : 1\nFormat : AVC\nFormat/Info : Advanced Video Codec\nFormat profile : &lt;a class=&quot;__cf_email__&quot; href=&quot;/cdn-cgi/l/email-protection&quot; data-cfemail=&quot;b9fbd8cadcd5d0d7dcf9f588978a&quot;&gt;[email&amp;#160;protected]&lt;/a&gt;&lt;script data-cfhash='f9e31' type=&quot;text/javascript&quot;&gt;\n/* &lt;![CDATA[ */!function(){try{var t=&quot;currentScript&quot;in document?document.currentScript:function(){for(var t=document.getElementsByTagName(&quot;script&quot;),e=t.length;e--;)if(t[e].getAttribute(&quot;data-cfhash&quot;))return t[e]}();if(t&amp;&amp;t.previousSibling){var e,r,n,i,c=t.previousSibling,a=c.getAttribute(&quot;data-cfemail&quot;);if(a){for(e=&quot;&quot;,r=parseInt(a.substr(0,2),16),n=2;a.length-n;n+=2)i=parseInt(a.substr(n,2),16)^r,e+=String.fromCharCode(i);e=document.createTextNode(e),c.parentNode.replaceChild(e,c)}t.parentNode.removeChild(t);}}catch(u){}}()/* ]]&gt; */&lt;/script&gt;\nFormat settings, CABAC : No\nFormat settings, ReFrames : 2 frames\nCodec ID : V_MPEG4/ISO/AVC\nDuration : 1h 55mn\nBit rate : 384 Kbps\nWidth : 608 pixels\nHeight : 248 pixels\nDisplay aspect ratio : 2.40:1\nFrame rate mode : Constant\nFrame rate : 23.976 fps\nColor space : YUV\nChroma subsampling : 4:2:0\nBit depth : 8 bits\nScan type : Progressive\nBits/(Pixel*Frame) : 0.106\nStream size : 308 MiB (65%)\nWriting library : x264 core 140 r2377 1ca7bb9\nEncoding settings : Cool_Candy\nDefault : Yes\nForced : No\n\n\n\nAudio\n\n\nID : 2\nFormat : AC-3\nFormat/Info : Audio Coding 3\nMode extension : CM (complete main)\nFormat settings, Endianness : Big\nCodec ID : A_AC3\nDuration : 1h 55mn\nBit rate mode : Constant\nBit rate : 192 Kbps\nChannel(s) : 2 channels\nChannel positions : Front: L R\nSampling rate : 48.0 KHz\nBit depth : 16 bits\nCompression mode : Lossy\nDelay relative to video : -5ms\nStream size : 158 MiB (33%)\nDefault : Yes\nForced : No","torrent":{"xt":"urn:btih:1e4e415655476d312d09c4c29d485377ad586c36","amp;dn":"%5BPC%5DRege+-+2014+-+Marathi+720p+DVDRip.mp4","amp;tr":["udp%3A%2F%2Ftracker.openbittorrent.com%3A80","udp%3A%2F%2Fopen.demonii.com%3A1337","udp%3A%2F%2Ftracker.coppersurfer.tk%3A6969","udp%3A%2F%2Fexodus.desync.com%3A6969"],"infoHash":"1e4e415655476d312d09c4c29d485377ad586c36","infoHashBuffer":{"type":"Buffer","data":[30,78,65,86,85,71,109,49,45,9,196,194,157,72,83,119,173,88,108,54]},"announce":[],"urlList":[]}}